<?xml version="1.0" ?>
<!DOCTYPE svg  PUBLIC '-//W3C//DTD SVG 1.1//EN'  'http://www.w3.org/Graphics/SVG/1.1/DTD/svg11.dtd'>
<svg enable-background="new 0 0 64 64" height="64px" id="CANDY" version="1.1" viewBox="0 0 64 64" width="64px" xml:space="preserve" xmlns="http://www.w3.org/2000/svg" xmlns:xlink="http://www.w3.org/1999/xlink">
  <g id="CANDY_1_" transform="translate(32,32) scale(-1.6, 1.6) rotate(140) translate(-32,-32)"> 
    <path d="M27.64,49.647c-0.572,2.134,0.694,4.327,2.828,4.899l0,0c2.134,0.571,4.327-0.694,4.899-2.828l7.278-27.167   c1.555-5.802-1.888-11.765-7.689-13.319c-5.801-1.554-11.765,1.889-13.319,7.69l-0.518,1.932c-0.571,2.134,0.695,4.327,2.829,4.898   l0,0c2.134,0.572,4.327-0.694,4.898-2.828l0.518-1.932c0.411-1.534,1.987-2.444,3.521-2.033s2.443,1.987,2.033,3.521L27.64,49.647z   " fill="#FFFFFF"/>
    <path d="M42.978,22.571c0.263-3.362-1.061-6.6-3.458-8.819l-5.561,5.763c0.773,0.635,1.172,1.645,1.007,2.674   L42.978,22.571z" fill="#D64541"/>
    <path d="M22.349,17.021l7.054,3.872c0.354-1.145,1.356-1.912,2.493-2.01l-2.502-7.661   C26.363,12.017,23.751,14.101,22.349,17.021z" fill="#D64541"/>
    <rect fill="#D64541" height="5.999" transform="matrix(0.9659 0.2588 -0.2588 0.9659 12.6352 -7.0698)" width="8" x="29.171" y="41.458"/>
    <rect fill="#D64541" height="6.001" transform="matrix(0.9659 0.2588 -0.2588 0.9659 9.4603 -8.3861)" width="7.999" x="32.58" y="28.736"/>
    <path d="M31.506,55.684L31.506,55.684c-0.437,0-0.873-0.058-1.297-0.171c-2.663-0.714-4.249-3.462-3.535-6.124   l7.279-27.166c0.267-0.998-0.328-2.029-1.326-2.297c-0.989-0.266-2.034,0.35-2.297,1.326l-0.518,1.932   c-0.584,2.183-2.568,3.707-4.826,3.707c-0.437,0-0.872-0.059-1.297-0.172c-1.29-0.346-2.368-1.172-3.036-2.329   c-0.668-1.156-0.846-2.504-0.5-3.794l0.518-1.932c1.389-5.184,6.104-8.805,11.464-8.805c1.035,0,2.071,0.137,3.08,0.407   c3.064,0.821,5.625,2.786,7.211,5.533c1.586,2.748,2.007,5.947,1.186,9.011l-7.278,27.167   C35.748,54.16,33.763,55.684,31.506,55.684z M32.14,17.861c0.338,0,0.676,0.045,1.005,0.133c2.063,0.553,3.292,2.682,2.74,4.746   l-7.279,27.166c-0.429,1.598,0.523,3.246,2.121,3.675c1.58,0.425,3.256-0.56,3.675-2.121l7.278-27.167   c0.683-2.548,0.332-5.209-0.986-7.494c-1.318-2.284-3.448-3.918-5.996-4.601c-0.84-0.225-1.702-0.339-2.563-0.339   c-4.457,0-8.377,3.011-9.532,7.322l-0.518,1.932c-0.207,0.773-0.101,1.582,0.3,2.276c0.401,0.694,1.048,1.19,1.822,1.397   c1.582,0.422,3.256-0.56,3.674-2.121l0.518-1.932C28.852,19.043,30.39,17.861,32.14,17.861z" fill="#26251D"/>
  </g>
</svg>
